<?xml version="1.0" encoding="UTF-8"?>
<!DOCTYPE svg PUBLIC "-//W3C//DTD SVG 1.1//EN" "http://www.w3.org/Graphics/SVG/1.1/DTD/svg11.dtd">
<!-- Creator: CorelDRAW 2020 (64-Bit) -->
<svg xmlns="http://www.w3.org/2000/svg" xml:space="preserve" width="124.542mm" height="35.6287mm" version="1.1" style="shape-rendering:geometricPrecision; text-rendering:geometricPrecision; image-rendering:optimizeQuality; fill-rule:evenodd; clip-rule:evenodd"
viewBox="0 0 12712.7 3636.82"
 xmlns:xlink="http://www.w3.org/1999/xlink"
 xmlns:xodm="http://www.corel.com/coreldraw/odm/2003">
 <defs>
  <style type="text/css">
   <![CDATA[
    .str0 {stroke:#FEFEFE;stroke-width:7.78;stroke-miterlimit:22.9256}
    .fil2 {fill:#FEFEFE}
    .fil1 {fill:#373435}
    .fil0 {fill:#3E4095}
    .fil4 {fill:#FEFEFE;fill-rule:nonzero}
    .fil3 {fill:#3E4095;fill-rule:nonzero}
   ]]>
  </style>
 </defs>
 <g id="Capa_x0020_1">
  <metadata id="CorelCorpID_0Corel-Layer"/>
  <polygon class="fil0" points="9.48,0 2816.56,0 2816.56,2807.07 9.48,2807.07 "/>
  <path class="fil1" d="M1413.02 52.69c756.09,0 1369.25,604.91 1369.25,1350.83 0,745.93 -613.16,1350.84 -1369.25,1350.84 -756.09,0 -1369.25,-604.91 -1369.25,-1350.84 0,-745.92 613.16,-1350.83 1369.25,-1350.83z"/>
  <path class="fil2 str0" d="M1413.01 228.47c657.71,0 1191.09,526.19 1191.09,1175.05 0,648.86 -533.38,1175.06 -1191.09,1175.06 -657.7,0 -1191.08,-526.2 -1191.08,-1175.06 0,-648.86 533.38,-1175.05 1191.08,-1175.05z"/>
  <polygon class="fil1" points="878.52,2103 640.96,2103 1432.81,426.92 2259.18,2135.1 1564.8,2122.8 1558.19,2347.15 1386.62,2347.15 1380.03,1924.84 1935.84,1937.14 1459.21,908.62 "/>
  <polygon class="fil0" points="9.48,2838.29 7651.63,2838.29 7651.63,2924.22 9.48,2924.22 "/>
  <path class="fil3" d="M3299.43 2562.08l134.95 -389.13 178.32 0 0 44.62 -26.15 0c-18.37,0 -30.51,2.88 -36.5,8.64 -5.96,5.74 -8.95,18.27 -8.95,37.56l0 340.59c0,19.31 2.77,31.83 8.26,37.58 5.52,5.73 17.9,8.6 37.2,8.6l26.15 0 0 44.63 -217.55 0 0 -44.63 26.14 0c18.36,0 30.54,-2.88 36.51,-8.6 5.96,-5.76 8.95,-18.27 8.95,-37.58l0 -372.68 -163.88 463.49 -35.09 0 -165.95 -463.49 0 372.68c0,19.31 2.78,31.83 8.27,37.58 5.51,5.73 17.9,8.6 37.2,8.6l26.15 0 0 44.63 -190.73 0 0 -44.63 26.17 0c18.38,0 30.53,-2.88 36.49,-8.6 5.97,-5.76 8.95,-18.27 8.95,-37.58l0 -340.59c0,-19.29 -2.76,-31.83 -8.27,-37.56 -5.49,-5.76 -17.9,-8.64 -37.18,-8.64l-26.17 0 0 -44.62 181.78 0 134.94 389.13zm1628.92 -115.49l189.7 221.78 0 40.3 157.37 0 0 -42.98 -76.43 0 -180.46 -228.33c42.4,-7.15 76.47,-19.39 101.67,-48.71 19.03,-22.17 28.58,-51.8 28.58,-88.87 0,-40.7 -9.21,-69.93 -27.56,-87.68 -18.36,-17.74 -34.31,-28.7 -47.84,-32.87 -13.55,-4.19 -32.72,-6.28 -57.49,-6.28l-311.21 0 0 44.62 26.17 0c19.25,0 31.66,2.88 37.16,8.64 5.53,5.74 8.27,18.27 8.27,37.56l0 340.59c0,19.31 -2.96,31.83 -8.95,37.58 -5.96,5.73 -18.12,8.6 -36.47,8.6l-26.17 0 0 44.63 221.7 0 0 -44.63 -30.31 0c-19.26,0 -31.66,-2.88 -37.16,-8.6 -5.52,-5.76 -8.27,-18.27 -8.27,-37.58l0 -159.71 75.75 0 1.96 1.95zm-1088.9 -225.88l0 180.86 66.8 0c37.61,0 56.46,-21.65 56.46,-64.99l0 -34.44 39.92 0 0 246.62 -39.92 0 0 -27.41c0,-26.09 -4.36,-45.15 -13.08,-57.16 -8.73,-11.98 -22.75,-18.01 -42,-18.01l-68.18 0 0 201.22 130.13 0c56.93,0 92.74,-12.26 107.42,-36.8 14.68,-24.53 22.03,-70.72 22.03,-138.57l42 0 0 223.13 -451.66 0 0 -44.63 30.29 0c18.35,0 30.53,-2.88 36.49,-8.6 5.97,-5.76 8.95,-18.27 8.95,-37.58l0 -340.59c0,-19.29 -2.76,-31.83 -8.25,-37.56 -5.54,-5.76 -17.92,-8.64 -37.2,-8.64l-30.29 0 0 -44.62 444.09 0 0 194.95 -40.64 0c0,-44.88 -6.53,-80.64 -19.61,-107.26 -13.09,-26.61 -37.53,-39.93 -73.33,-39.93l-160.43 0zm422.28 150.34l-39.24 0 0 -198.1 422.05 0 0 198.1 -38.55 0c0,-51.17 -5.64,-88.88 -16.86,-113.14 -11.26,-24.28 -37.3,-36.41 -78.16,-36.41l-38.55 0 0 382.85c0,19.31 2.77,31.83 8.26,37.58 5.52,5.73 17.9,8.6 37.19,8.6l34.43 0 0 44.63 -235.48 0 0 -44.63 33.75 0c18.35,0 30.51,-2.88 36.49,-8.6 5.97,-5.76 8.93,-18.27 8.93,-37.58l0 -382.85 -35.79 0c-41.32,0 -68.04,11.75 -80.22,35.23 -12.16,23.5 -18.24,61.58 -18.24,114.32zm588.91 26.61l134.24 0c26.17,0 46.59,-7.96 61.31,-23.88 14.68,-15.91 22.03,-38.49 22.03,-67.73 0,-58.99 -29.16,-88.49 -87.45,-88.49l-130.13 0 0 180.09zm661.88 -237.22c57.83,0 103.95,12.65 138.36,37.96 34.43,25.31 60.71,58.06 78.85,98.27 18.13,40.18 27.18,82.99 27.18,128.4 0,88.2 -21.69,157.49 -65.05,207.86 -43.38,50.37 -103.85,75.57 -181.43,75.57 -70.68,0 -127.94,-24.93 -171.78,-74.78 -43.83,-49.84 -65.74,-114.7 -65.74,-194.56 0,-83.52 21.79,-150.84 65.41,-202.01 43.59,-51.14 101.67,-76.71 174.19,-76.71zm2.05 48.53c-49.56,0 -88.34,19.98 -116.36,59.9 -27.98,39.93 -42.01,95.38 -42.01,166.38 0,40.71 3,73.32 8.95,97.86 5.98,24.53 20.21,51.81 42.7,81.81 22.5,30.01 57.62,45.03 105.35,45.03 51.4,0 91.09,-20.22 119.11,-60.68 28,-40.46 42,-98.26 42,-173.41 0,-65.25 -14.72,-117.7 -44.09,-157.38 -29.36,-39.68 -67.92,-59.51 -115.66,-59.51zm656.37 5.49l15.83 -45.41 37.21 0 0 194.16 -37.21 0c-8.26,-49.58 -24.56,-86.63 -48.64,-111.16 -24.21,-24.55 -58.29,-36.8 -102.48,-36.8 -30.87,0 -56.81,8.73 -77.69,26.21 -21,17.49 -31.43,39.03 -31.43,64.6 0,20.36 6.41,36.01 19.28,46.98 12.84,10.95 48.31,21.53 106.36,31.71 58.06,10.16 104.89,22.83 140.46,37.96 35.59,15.13 53.37,53.5 53.37,115.09 0,50.11 -15.61,91.07 -46.81,122.93 -31.22,31.83 -71.61,47.76 -121.19,47.76 -34.43,0 -64.03,-5.09 -88.81,-15.27 -24.78,-10.18 -49.58,-28.07 -74.37,-53.64l-17.19 55.59 -37.21 0 0 -208.25 37.21 0c2.75,32.87 8.82,59.23 18.23,79.07 9.31,19.83 26.86,39.41 52.56,58.72 25.71,19.32 57.7,28.98 95.92,28.98 31.81,0 57.86,-8.62 78.15,-25.86 20.31,-17.22 30.53,-39.39 30.53,-66.53 0,-40.2 -26.16,-66.03 -78.5,-77.53 -52.33,-11.48 -103.73,-22.43 -154.23,-32.87 -54.62,-20.88 -81.94,-61.33 -81.94,-121.37 0,-51.14 15.16,-92.12 45.46,-122.91 30.29,-30.8 70.68,-46.19 121.17,-46.19 29.83,0 55.76,4.04 77.79,12.13 22.02,8.09 44.75,22.05 68.16,41.89zm480.12 306.9l-194.16 0c-6.43,16.7 -12.96,34.58 -19.63,53.64 -6.66,19.06 -9.98,35.09 -9.98,48.15 0,9.91 2.77,16.95 8.26,21.14 5.52,4.16 15.38,6.26 29.6,6.26l36.51 0 0 44.63 -203.81 0 0 -44.63c29.86,0 49.23,-3.78 58.18,-11.34 8.95,-7.58 19.4,-28.07 31.33,-61.47l142.51 -404.78 72.19 0 156.42 415.74c11.92,26.62 20.42,43.59 25.48,50.88 5.03,7.31 16.05,10.96 33.03,10.96l24.77 0 0 44.63 -223.75 0 0 -44.63 39.24 0c11.94,0 20.44,-1.31 25.48,-3.92 5.05,-2.59 7.57,-7.31 7.57,-14.09 0,-2.61 -0.56,-5.87 -1.73,-9.8 -1.14,-3.9 -2.86,-8.73 -5.17,-14.46l-32.35 -86.92zm-17.22 -47.76l-84.67 -223.91 -76.42 223.91 161.1 0zm406.46 -300.64l255.43 391.46 0 -300.64c0,-21.38 -3.56,-34.44 -10.7,-39.14 -7.1,-4.71 -28.79,-7.06 -65.05,-7.06l0 -44.62 188.66 0 0 44.62 -20.67 0c-18.35,0 -30.51,2.88 -36.47,8.64 -5.99,5.74 -8.95,18.27 -8.95,37.56l0 431.4 -55.78 0 -284.35 -432.95 0 342.14c0,19.31 2.78,31.83 8.27,37.58 5.51,5.73 17.9,8.6 37.2,8.6l30.29 0 0 44.63 -194.86 0 0 -44.63 26.17 0c18.36,0 30.51,-2.88 36.49,-8.6 5.97,-5.76 8.95,-18.27 8.95,-37.58l0 -340.59c0,-19.29 -2.76,-31.83 -8.27,-37.56 -5.49,-5.76 -17.9,-8.64 -37.18,-8.64l-26.17 0 0 -44.62 157 0zm509.68 432.97c12.86,0 23.67,4.94 32.37,14.86 8.73,9.92 13.1,22.19 13.1,36.8 0,14.63 -4.37,26.88 -13.1,36.8 -8.7,9.92 -19.51,14.87 -32.37,14.87 -12.84,0 -23.63,-4.95 -32.33,-14.87 -8.72,-9.92 -13.1,-22.17 -13.1,-36.8 0,-14.61 4.38,-26.88 13.1,-36.8 8.7,-9.92 19.49,-14.86 32.33,-14.86z"/>
  <path class="fil4" d="M4850.64 2397.66l134.24 0c26.17,0 46.59,-7.96 61.31,-23.88 14.68,-15.91 22.03,-38.49 22.03,-67.73 0,-58.99 -29.16,-88.49 -87.45,-88.49l-130.13 0 0 180.09z"/>
  <g id="_1687329676032">
   <path class="fil3" d="M374.44 3064.97l21.07 -47.07 37.94 0 0 188.28 -37.94 0c-5.14,-43.09 -21.43,-78.1 -48.82,-105.03 -27.4,-26.93 -60.3,-40.39 -98.7,-40.39 -49.65,0 -89.22,18.37 -118.72,55.14 -29.51,36.77 -44.26,86.29 -44.26,148.58 0,55.73 14.28,100.46 42.85,134.18 28.57,33.73 66.97,50.59 115.21,50.59 40.28,0 74.46,-12.88 102.57,-38.65 28.1,-25.75 46.13,-60.41 54.09,-103.96l47.08 0c-6.56,60.88 -28.57,108.88 -66.04,144.01 -37.46,35.12 -86.88,52.69 -148.22,52.69 -68.85,0 -124.82,-21.78 -167.9,-65.34 -43.09,-43.56 -64.63,-100.45 -64.63,-170.71 0,-74.93 20.61,-136.28 61.83,-184.05 41.21,-47.77 94.6,-71.66 160.17,-71.66 32.79,0 59.48,3.75 80.09,11.24 20.61,7.49 44.73,21.55 72.36,42.15zm307.7 87.11c51.99,0 94.49,16.05 127.5,48.13 33.02,32.08 49.53,73.65 49.53,124.7 0,54.32 -15.92,97.65 -47.76,129.96 -31.85,32.32 -74.71,48.48 -128.56,48.48 -51.99,0 -94.73,-15.58 -128.21,-46.72 -33.49,-31.14 -50.23,-72.71 -50.23,-124.7 0,-55.26 15.92,-99.05 47.77,-131.37 31.85,-32.32 75.17,-48.48 129.96,-48.48zm-1.41 41.45c-30.44,0 -54.56,12.18 -72.35,36.53 -17.8,24.36 -26.7,57.6 -26.7,99.76 0,88.05 34.2,132.07 102.58,132.07 30.44,0 54.32,-11.24 71.65,-33.72 17.33,-22.48 26,-54.09 26,-94.84 0,-93.21 -33.73,-139.8 -101.17,-139.8zm421.51 -41.45c51.99,0 94.49,16.05 127.5,48.13 33.02,32.08 49.53,73.65 49.53,124.7 0,54.32 -15.92,97.65 -47.76,129.96 -31.85,32.32 -74.71,48.48 -128.56,48.48 -51.99,0 -94.73,-15.58 -128.21,-46.72 -33.49,-31.14 -50.23,-72.71 -50.23,-124.7 0,-55.26 15.92,-99.05 47.77,-131.37 31.85,-32.32 75.17,-48.48 129.96,-48.48zm-1.41 41.45c-30.44,0 -54.56,12.18 -72.35,36.53 -17.8,24.36 -26.7,57.6 -26.7,99.76 0,88.05 34.2,132.07 102.58,132.07 30.44,0 54.32,-11.24 71.65,-33.72 17.33,-22.48 26,-54.09 26,-94.84 0,-93.21 -33.73,-139.8 -101.17,-139.8zm363.91 -30.2l-3.52 56.19c21.55,-27.63 40.04,-45.89 55.5,-54.79 15.46,-8.89 36.53,-13.34 63.24,-13.34 41.21,0 74.93,15.45 101.16,46.36 26.22,30.91 39.34,70.95 39.34,120.13 0,53.86 -13.58,98.11 -40.75,132.77 -27.16,34.66 -61.82,51.99 -103.96,51.99 -24.36,0 -44.96,-4.69 -61.83,-14.05 -16.86,-9.37 -33.25,-25.29 -49.17,-47.77l0 111.7c0,19.67 2.23,31.96 6.67,36.88 4.45,4.92 15.34,7.37 32.67,7.37l32.32 0 0 37.24 -205.85 0 0 -37.24 25.29 0c17.8,0 28.92,-2.45 33.37,-7.37 4.45,-4.92 6.68,-17.21 6.68,-36.88l0 -307.71c0,-19.67 -2.23,-31.96 -6.68,-36.88 -4.45,-4.92 -15.57,-7.38 -33.37,-7.38l-25.29 0 0 -37.23 134.19 0zm89.92 38.64c-27.63,0 -50.11,11.71 -67.44,35.12 -17.33,23.42 -26,54.09 -26,92.03 0,36.06 8.43,65.69 25.29,88.87 16.86,23.18 38.64,34.78 65.34,34.78 30.44,0 53.74,-11.36 69.9,-34.07 16.15,-22.71 24.23,-55.39 24.23,-98 0,-38.4 -7.85,-67.79 -23.54,-88.16 -15.69,-20.37 -38.28,-30.56 -67.79,-30.56zm560.61 128.56l-253.61 0c0,37.46 8.2,67.67 24.59,90.62 16.38,22.95 42.85,34.42 79.38,34.42 25.28,0 47.3,-7.84 66.03,-23.54 18.73,-15.69 31.14,-36.65 37.24,-62.87l44.95 0c-9.36,43.09 -27.74,76.22 -55.14,99.4 -27.41,23.18 -61.7,34.78 -102.92,34.78 -51.05,0 -92.03,-15.69 -122.94,-47.07 -30.91,-31.38 -46.36,-72.83 -46.36,-124.35 0,-55.26 14.98,-99.05 44.95,-131.37 29.98,-32.32 70.95,-48.48 122.94,-48.48 38.41,0 71.54,9.14 99.41,27.41 27.87,18.26 44.61,38.28 50.23,60.06 5.61,21.77 8.89,36.88 9.83,45.31 0.94,8.43 1.41,23.65 1.41,45.67zm-74.46 -40.04c0,-30.92 -7.85,-55.15 -23.54,-72.72 -15.69,-17.56 -37.11,-26.34 -64.28,-26.34 -25.29,0 -46.14,8.89 -62.53,26.69 -16.38,17.79 -25.99,41.91 -28.8,72.36l179.14 0zm258.52 -127.16l-2.1 70.95c20.14,-29.51 38.05,-50 53.74,-61.47 15.69,-11.47 33.13,-17.21 52.33,-17.21 17.8,0 32.55,5.38 44.26,16.16 11.71,10.77 17.56,24.35 17.56,40.74 0,16.39 -3.98,29.51 -11.94,39.34 -7.96,9.84 -18.97,14.76 -33.01,14.76 -11.24,0 -20.61,-3.75 -28.1,-11.25 -7.49,-7.49 -11.24,-16.62 -11.24,-27.4 0,-10.3 2.69,-17.68 8.07,-22.13 5.39,-4.44 8.08,-7.6 8.08,-9.48 0,-2.81 -2.82,-4.22 -8.43,-4.22 -5.15,0 -11.94,2.35 -20.37,7.03 -8.43,4.68 -16.98,11.47 -25.64,20.36 -8.67,8.9 -16.05,19.21 -22.13,30.92 -6.09,11.71 -11.47,27.4 -16.16,47.07l0 112.41c0,19.67 2.23,31.96 6.68,36.88 4.45,4.92 15.33,7.37 32.66,7.37l39.34 0 0 37.24 -217.07 0 0 -37.24 29.5 0c17.8,0 28.93,-2.45 33.38,-7.37 4.44,-4.92 6.67,-17.21 6.67,-36.88l0 -165.1c0,-19.2 -2.23,-31.26 -6.67,-36.18 -4.45,-4.92 -15.58,-7.38 -33.38,-7.38l-29.5 0 0 -37.93 133.47 0zm520.57 189.68l36.52 0 0 29.5c0,41.22 -4.45,71.66 -13.34,91.33 -8.9,19.67 -31.61,29.51 -68.15,29.51 -41.69,0 -65.34,-23.42 -70.95,-70.25 -17.33,25.75 -34.89,43.9 -52.69,54.44 -17.79,10.54 -39.81,15.81 -66.03,15.81 -30.45,0 -54.57,-7.96 -72.36,-23.89 -17.8,-15.92 -26.69,-37.7 -26.69,-65.34 0,-33.25 9.13,-57.84 27.4,-73.76 18.26,-15.92 49.53,-27.28 93.79,-34.07 44.25,-6.79 71.77,-13.34 82.54,-19.67 10.78,-6.32 16.16,-18.85 16.16,-37.58 0,-40.28 -26.22,-60.42 -78.68,-60.42 -30.44,0 -53.16,7.26 -68.15,21.78 19.2,3.28 28.81,14.05 28.81,32.32 0,12.64 -4.1,22.59 -12.29,29.86 -8.2,7.26 -18.85,10.88 -31.97,10.88 -12.18,0 -22.13,-4.33 -29.86,-12.99 -7.73,-8.67 -11.59,-19.55 -11.59,-32.66 0,-26.22 11.71,-47.07 35.12,-62.52 23.42,-15.45 55.5,-23.19 96.24,-23.19 45.43,0 77.17,5.39 95.2,16.16 18.03,10.78 29.86,21.9 35.48,33.38 5.61,11.47 8.42,27.74 8.42,48.82l0 167.89c0,23.43 7.27,35.13 21.78,35.13 10.3,0 17.1,-4.57 20.37,-13.7 3.28,-9.14 4.92,-28.46 4.92,-57.96l0 -28.81zm-115.92 -38.64c-4.69,2.34 -11,5.27 -18.97,8.78 -7.96,3.51 -25.65,9.48 -53.05,17.91 -27.4,8.43 -46.24,16.63 -56.55,24.59 -10.3,7.96 -15.45,21.3 -15.45,40.04 0,14.98 4.69,26.69 14.06,35.12 9.36,8.43 22.71,12.65 40.03,12.65 27.17,0 48.95,-8.67 65.34,-26 16.39,-17.33 24.59,-40.04 24.59,-68.15l0 -44.95zm293.65 -150.35l94.84 0 0 39.35 -94.84 0 0 213.56c0,24.36 9.36,36.53 28.1,36.53 12.64,0 21.3,-4.45 25.99,-13.35 4.69,-8.9 7.02,-26 7.02,-51.28l0 -33.02 38.65 0 0 33.02c0,42.62 -6.56,72.36 -19.68,89.21 -13.11,16.86 -36.52,25.29 -70.25,25.29 -53.39,0 -80.09,-26.69 -80.09,-80.09l0 -219.88 -61.11 0 0 -39.35c28.57,0 50.34,-11.35 65.33,-34.06 14.99,-22.72 22.49,-49.3 22.49,-79.74l43.56 0 0 113.8zm278.2 -0.69l0 246.58c0,19.67 2.23,31.96 6.68,36.88 4.45,4.92 15.33,7.37 32.66,7.37l25.29 0 0 37.24 -203.03 0 0 -37.24 29.5 0c17.8,0 28.92,-2.45 33.37,-7.37 4.45,-4.92 6.68,-17.21 6.68,-36.88l0 -165.1c0,-19.2 -2.23,-31.26 -6.68,-36.18 -4.45,-4.92 -15.57,-7.38 -33.37,-7.38l-29.5 0 0 -37.93 138.39 0zm-40.04 -141.92c12.65,0 23.42,4.22 32.32,12.65 8.9,8.43 13.34,19.2 13.34,32.32 0,12.18 -4.44,22.71 -13.34,31.61 -8.9,8.9 -19.67,13.35 -32.32,13.35 -12.18,0 -22.71,-4.45 -31.61,-13.35 -8.9,-8.9 -13.35,-19.44 -13.35,-31.61 0,-12.18 4.45,-22.71 13.35,-31.61 8.9,-8.9 19.44,-13.35 31.61,-13.35zm331.59 408.86l80.08 -199.51 2.82 -11.94c0,-6.56 -1.99,-11.13 -5.97,-13.7 -3.98,-2.58 -10.89,-3.87 -20.73,-3.87l-29.5 0 0 -37.93 155.96 0 0 37.93 -20.37 0c-14.06,0 -25.06,9.84 -33.02,29.51l-108.89 260.63 -68.14 0 -101.87 -249.98c-7.02,-17.91 -14.86,-29.03 -23.53,-33.48 -8.67,-4.45 -23.3,-6.68 -43.91,-6.68l0 -37.93 192.49 0 0 37.93 -33.02 0c-17.33,0 -25.99,4.45 -25.99,13.35l2.81 16.27 80.79 199.39zm531.8 -77.27l36.52 0 0 29.5c0,41.22 -4.45,71.66 -13.34,91.33 -8.9,19.67 -31.61,29.51 -68.15,29.51 -41.69,0 -65.34,-23.42 -70.95,-70.25 -17.33,25.75 -34.89,43.9 -52.69,54.44 -17.79,10.54 -39.81,15.81 -66.03,15.81 -30.45,0 -54.57,-7.96 -72.36,-23.89 -17.8,-15.92 -26.69,-37.7 -26.69,-65.34 0,-33.25 9.13,-57.84 27.4,-73.76 18.26,-15.92 49.53,-27.28 93.79,-34.07 44.25,-6.79 71.77,-13.34 82.54,-19.67 10.78,-6.32 16.16,-18.85 16.16,-37.58 0,-40.28 -26.22,-60.42 -78.68,-60.42 -30.44,0 -53.16,7.26 -68.15,21.78 19.2,3.28 28.81,14.05 28.81,32.32 0,12.64 -4.1,22.59 -12.29,29.86 -8.2,7.26 -18.85,10.88 -31.97,10.88 -12.18,0 -22.13,-4.33 -29.86,-12.99 -7.73,-8.67 -11.59,-19.55 -11.59,-32.66 0,-26.22 11.71,-47.07 35.12,-62.52 23.42,-15.45 55.5,-23.19 96.24,-23.19 45.43,0 77.17,5.39 95.2,16.16 18.03,10.78 29.86,21.9 35.48,33.38 5.61,11.47 8.42,27.74 8.42,48.82l0 167.89c0,23.43 7.27,35.13 21.78,35.13 10.3,0 17.1,-4.57 20.37,-13.7 3.28,-9.14 4.92,-28.46 4.92,-57.96l0 -28.81zm-115.92 -38.64c-4.69,2.34 -11,5.27 -18.97,8.78 -7.96,3.51 -25.65,9.48 -53.05,17.91 -27.4,8.43 -46.24,16.63 -56.55,24.59 -10.3,7.96 -15.45,21.3 -15.45,40.04 0,14.98 4.69,26.69 14.06,35.12 9.36,8.43 22.71,12.65 40.03,12.65 27.17,0 48.95,-8.67 65.34,-26 16.39,-17.33 24.59,-40.04 24.59,-68.15l0 -44.95zm644.21 177.03l0 -59.71c-14.99,26.22 -31.27,44.73 -48.83,55.5 -17.56,10.77 -40.16,16.16 -67.79,16.16 -39.81,0 -73.54,-15.92 -101.17,-47.77 -27.63,-31.85 -41.44,-71.19 -41.44,-118.02 0,-54.33 14.28,-98.82 42.85,-133.48 28.57,-34.65 65.1,-51.99 109.59,-51.99 48.24,0 83.83,19.68 106.79,59.02l0 -106.09c0,-19.67 -2.23,-31.96 -6.68,-36.88 -4.45,-4.92 -15.34,-7.37 -32.67,-7.37l-29.5 0 0 -37.24 136.29 0 0 386.39c0,19.67 2.22,31.96 6.67,36.88 4.45,4.92 15.58,7.37 33.37,7.37l20.37 0 0 37.24 -127.85 0zm-92.74 -289.44c-28.1,0 -50.58,11.82 -67.44,35.59 -16.86,23.65 -25.29,55.5 -25.29,95.42 0,38.52 7.73,68.38 23.18,89.46 15.46,21.19 37.71,31.73 66.75,31.73 29.97,0 53.86,-11.47 71.66,-34.53 17.79,-22.96 26.69,-53.98 26.69,-92.97 0,-39.46 -8.32,-70.14 -24.94,-91.91 -16.63,-21.9 -40.17,-32.79 -70.61,-32.79zm602.05 128.56l-253.61 0c0,37.46 8.2,67.67 24.59,90.62 16.38,22.95 42.85,34.42 79.38,34.42 25.28,0 47.3,-7.84 66.03,-23.54 18.73,-15.69 31.14,-36.65 37.24,-62.87l44.95 0c-9.36,43.09 -27.74,76.22 -55.14,99.4 -27.41,23.18 -61.7,34.78 -102.92,34.78 -51.05,0 -92.03,-15.69 -122.94,-47.07 -30.91,-31.38 -46.36,-72.83 -46.36,-124.35 0,-55.26 14.98,-99.05 44.95,-131.37 29.98,-32.32 70.95,-48.48 122.94,-48.48 38.41,0 71.54,9.14 99.41,27.41 27.87,18.26 44.61,38.28 50.23,60.06 5.61,21.77 8.89,36.88 9.83,45.31 0.94,8.43 1.41,23.65 1.41,45.67zm-74.46 -40.04c0,-30.92 -7.85,-55.15 -23.54,-72.72 -15.69,-17.56 -37.11,-26.34 -64.28,-26.34 -25.29,0 -46.14,8.89 -62.53,26.69 -16.38,17.79 -25.99,41.91 -28.8,72.36l179.14 0zm347.04 -89.93l-40.04 0 0 -177.73 430.65 0 0 177.73 -39.34 0c0,-45.89 -5.74,-79.73 -17.22,-101.51 -11.47,-21.77 -38.04,-32.66 -79.73,-32.66l-39.34 0 0 343.54c0,17.32 2.81,28.56 8.43,33.72 5.61,5.15 18.26,7.73 37.93,7.73l35.12 0 0 40.04 -240.26 0 0 -40.04 34.42 0c18.74,0 31.14,-2.57 37.24,-7.73 6.08,-5.15 9.14,-16.39 9.14,-33.72l0 -343.54 -36.53 0c-42.16,0 -69.43,10.53 -81.84,31.61 -12.41,21.08 -18.62,55.26 -18.62,102.57zm551.47 -37.23l-2.1 70.95c20.14,-29.51 38.05,-50 53.74,-61.47 15.69,-11.47 33.13,-17.21 52.33,-17.21 17.8,0 32.55,5.38 44.26,16.16 11.71,10.77 17.56,24.35 17.56,40.74 0,16.39 -3.98,29.51 -11.94,39.34 -7.96,9.84 -18.97,14.76 -33.01,14.76 -11.24,0 -20.61,-3.75 -28.1,-11.25 -7.49,-7.49 -11.24,-16.62 -11.24,-27.4 0,-10.3 2.69,-17.68 8.07,-22.13 5.39,-4.44 8.08,-7.6 8.08,-9.48 0,-2.81 -2.82,-4.22 -8.43,-4.22 -5.15,0 -11.94,2.35 -20.37,7.03 -8.43,4.68 -16.98,11.47 -25.64,20.36 -8.67,8.9 -16.05,19.21 -22.13,30.92 -6.09,11.71 -11.47,27.4 -16.16,47.07l0 112.41c0,19.67 2.23,31.96 6.68,36.88 4.45,4.92 15.33,7.37 32.66,7.37l39.34 0 0 37.24 -217.07 0 0 -37.24 29.5 0c17.8,0 28.93,-2.45 33.38,-7.37 4.44,-4.92 6.67,-17.21 6.67,-36.88l0 -165.1c0,-19.2 -2.23,-31.26 -6.67,-36.18 -4.45,-4.92 -15.58,-7.38 -33.38,-7.38l-29.5 0 0 -37.93 133.47 0zm520.57 189.68l36.52 0 0 29.5c0,41.22 -4.45,71.66 -13.34,91.33 -8.9,19.67 -31.61,29.51 -68.15,29.51 -41.69,0 -65.34,-23.42 -70.95,-70.25 -17.33,25.75 -34.89,43.9 -52.69,54.44 -17.79,10.54 -39.81,15.81 -66.03,15.81 -30.45,0 -54.57,-7.96 -72.36,-23.89 -17.8,-15.92 -26.69,-37.7 -26.69,-65.34 0,-33.25 9.13,-57.84 27.4,-73.76 18.26,-15.92 49.53,-27.28 93.79,-34.07 44.25,-6.79 71.77,-13.34 82.54,-19.67 10.78,-6.32 16.16,-18.85 16.16,-37.58 0,-40.28 -26.22,-60.42 -78.68,-60.42 -30.44,0 -53.16,7.26 -68.15,21.78 19.2,3.28 28.81,14.05 28.81,32.32 0,12.64 -4.1,22.59 -12.29,29.86 -8.2,7.26 -18.85,10.88 -31.97,10.88 -12.18,0 -22.13,-4.33 -29.86,-12.99 -7.73,-8.67 -11.59,-19.55 -11.59,-32.66 0,-26.22 11.71,-47.07 35.12,-62.52 23.42,-15.45 55.5,-23.19 96.24,-23.19 45.43,0 77.17,5.39 95.2,16.16 18.03,10.78 29.86,21.9 35.48,33.38 5.61,11.47 8.42,27.74 8.42,48.82l0 167.89c0,23.43 7.27,35.13 21.78,35.13 10.3,0 17.1,-4.57 20.37,-13.7 3.28,-9.14 4.92,-28.46 4.92,-57.96l0 -28.81zm-115.92 -38.64c-4.69,2.34 -11,5.27 -18.97,8.78 -7.96,3.51 -25.65,9.48 -53.05,17.91 -27.4,8.43 -46.24,16.63 -56.55,24.59 -10.3,7.96 -15.45,21.3 -15.45,40.04 0,14.98 4.69,26.69 14.06,35.12 9.36,8.43 22.71,12.65 40.03,12.65 27.17,0 48.95,-8.67 65.34,-26 16.39,-17.33 24.59,-40.04 24.59,-68.15l0 -44.95zm315.42 -151.04l-2.81 53.39c18.5,-24.36 36.3,-41.21 53.39,-50.58 17.22,-9.37 38.88,-14.06 65.34,-14.06 35.12,0 62.52,9.26 82.19,27.75 19.67,18.5 29.51,45.31 29.51,80.44l0 149.64c0,19.67 2.23,31.96 6.68,36.88 4.45,4.92 15.33,7.37 32.66,7.37l21.08 0 0 37.24 -191.79 0 0 -37.24 20.37 0c17.79,0 28.92,-2.45 33.37,-7.37 4.45,-4.92 6.68,-17.21 6.68,-36.88l0 -134.88c0,-50.12 -22.02,-75.18 -66.04,-75.18 -28.1,0 -50.69,7.61 -67.79,22.83 -17.1,15.22 -25.64,35.25 -25.64,60.07l0 127.16c0,19.67 2.23,31.96 6.68,36.88 4.45,4.92 15.33,7.37 32.66,7.37l21.08 0 0 37.24 -194.6 0 0 -37.24 25.28 0c17.8,0 28.93,-2.45 33.37,-7.37 4.45,-4.92 6.68,-17.21 6.68,-36.88l0 -165.1c0,-19.2 -2.23,-31.26 -6.68,-36.18 -4.44,-4.92 -15.57,-7.38 -33.37,-7.38l-25.28 0 0 -37.93 136.99 0zm570.44 29.5l10.54 -34.42 35.83 0 0 120.83 -35.83 0c-17.33,-55.26 -55.03,-82.9 -113.11,-82.9 -20.14,0 -36.65,4.22 -49.53,12.65 -12.87,8.43 -19.31,19.2 -19.31,32.32 0,17.8 26.57,32.9 79.73,45.31 53.16,12.41 92.27,24.12 117.32,35.12 25.06,11 37.59,35.01 37.59,72.01 0,35.12 -11.6,62.16 -34.78,81.14 -23.18,18.97 -56.09,28.45 -98.71,28.45 -46.83,0 -86.17,-15.22 -118.02,-45.67l-10.53 39.35 -34.43 0 0 -131.37 38.64 0c4.22,16.39 8.08,28.1 11.6,35.12 3.51,7.02 9.61,15.22 18.26,24.59 8.67,9.36 21.31,17.32 37.94,23.89 16.63,6.55 33.37,9.83 50.23,9.83 22.95,0 40.86,-4.33 53.74,-12.99 12.87,-8.67 19.31,-20.49 19.31,-35.48 0,-21.54 -28.45,-39.57 -85.36,-54.09 -56.9,-14.52 -95.65,-26.11 -116.26,-34.78 -20.61,-8.67 -30.91,-32.19 -30.91,-70.6 0,-34.2 12.41,-59.25 37.24,-75.18 24.81,-15.92 55.26,-23.89 91.33,-23.89 44.95,0 80.78,13.59 107.48,40.75zm243.78 -29.5l-3.52 56.19c21.55,-27.63 40.04,-45.89 55.5,-54.79 15.46,-8.89 36.53,-13.34 63.24,-13.34 41.21,0 74.93,15.45 101.16,46.36 26.22,30.91 39.34,70.95 39.34,120.13 0,53.86 -13.58,98.11 -40.75,132.77 -27.16,34.66 -61.82,51.99 -103.96,51.99 -24.36,0 -44.96,-4.69 -61.83,-14.05 -16.86,-9.37 -33.25,-25.29 -49.17,-47.77l0 111.7c0,19.67 2.23,31.96 6.67,36.88 4.45,4.92 15.34,7.37 32.67,7.37l32.32 0 0 37.24 -205.85 0 0 -37.24 25.29 0c17.8,0 28.92,-2.45 33.37,-7.37 4.45,-4.92 6.68,-17.21 6.68,-36.88l0 -307.71c0,-19.67 -2.23,-31.96 -6.68,-36.88 -4.45,-4.92 -15.57,-7.38 -33.37,-7.38l-25.29 0 0 -37.23 134.19 0zm89.92 38.64c-27.63,0 -50.11,11.71 -67.44,35.12 -17.33,23.42 -26,54.09 -26,92.03 0,36.06 8.43,65.69 25.29,88.87 16.86,23.18 38.64,34.78 65.34,34.78 30.44,0 53.74,-11.36 69.9,-34.07 16.15,-22.71 24.23,-55.39 24.23,-98 0,-38.4 -7.85,-67.79 -23.54,-88.16 -15.69,-20.37 -38.28,-30.56 -67.79,-30.56zm408.86 -49.88c51.99,0 94.49,16.05 127.5,48.13 33.02,32.08 49.53,73.65 49.53,124.7 0,54.32 -15.92,97.65 -47.76,129.96 -31.85,32.32 -74.71,48.48 -128.56,48.48 -51.99,0 -94.73,-15.58 -128.21,-46.72 -33.49,-31.14 -50.23,-72.71 -50.23,-124.7 0,-55.26 15.92,-99.05 47.77,-131.37 31.85,-32.32 75.17,-48.48 129.96,-48.48zm-1.41 41.45c-30.44,0 -54.56,12.18 -72.35,36.53 -17.8,24.36 -26.7,57.6 -26.7,99.76 0,88.05 34.2,132.07 102.58,132.07 30.44,0 54.32,-11.24 71.65,-33.72 17.33,-22.48 26,-54.09 26,-94.84 0,-93.21 -33.73,-139.8 -101.17,-139.8zm365.31 -30.2l-2.1 70.95c20.14,-29.51 38.05,-50 53.74,-61.47 15.69,-11.47 33.13,-17.21 52.33,-17.21 17.8,0 32.55,5.38 44.26,16.16 11.71,10.77 17.56,24.35 17.56,40.74 0,16.39 -3.98,29.51 -11.94,39.34 -7.96,9.84 -18.97,14.76 -33.01,14.76 -11.24,0 -20.61,-3.75 -28.1,-11.25 -7.49,-7.49 -11.24,-16.62 -11.24,-27.4 0,-10.3 2.69,-17.68 8.07,-22.13 5.39,-4.44 8.08,-7.6 8.08,-9.48 0,-2.81 -2.82,-4.22 -8.43,-4.22 -5.15,0 -11.94,2.35 -20.37,7.03 -8.43,4.68 -16.98,11.47 -25.64,20.36 -8.67,8.9 -16.05,19.21 -22.13,30.92 -6.09,11.71 -11.47,27.4 -16.16,47.07l0 112.41c0,19.67 2.23,31.96 6.68,36.88 4.45,4.92 15.33,7.37 32.66,7.37l39.34 0 0 37.24 -217.07 0 0 -37.24 29.5 0c17.8,0 28.93,-2.45 33.38,-7.37 4.44,-4.92 6.67,-17.21 6.67,-36.88l0 -165.1c0,-19.2 -2.23,-31.26 -6.67,-36.18 -4.45,-4.92 -15.58,-7.38 -33.38,-7.38l-29.5 0 0 -37.93 133.47 0zm297.88 0.69l94.84 0 0 39.35 -94.84 0 0 213.56c0,24.36 9.36,36.53 28.1,36.53 12.64,0 21.3,-4.45 25.99,-13.35 4.69,-8.9 7.02,-26 7.02,-51.28l0 -33.02 38.65 0 0 33.02c0,42.62 -6.56,72.36 -19.68,89.21 -13.11,16.86 -36.52,25.29 -70.25,25.29 -53.39,0 -80.09,-26.69 -80.09,-80.09l0 -219.88 -61.11 0 0 -39.35c28.57,0 50.34,-11.35 65.33,-34.06 14.99,-22.72 22.49,-49.3 22.49,-79.74l43.56 0 0 113.8zm480.52 166.51l-253.61 0c0,37.46 8.2,67.67 24.59,90.62 16.38,22.95 42.85,34.42 79.38,34.42 25.28,0 47.3,-7.84 66.03,-23.54 18.73,-15.69 31.14,-36.65 37.24,-62.87l44.95 0c-9.36,43.09 -27.74,76.22 -55.14,99.4 -27.41,23.18 -61.7,34.78 -102.92,34.78 -51.05,0 -92.03,-15.69 -122.94,-47.07 -30.91,-31.38 -46.36,-72.83 -46.36,-124.35 0,-55.26 14.98,-99.05 44.95,-131.37 29.98,-32.32 70.95,-48.48 122.94,-48.48 38.41,0 71.54,9.14 99.41,27.41 27.87,18.26 44.61,38.28 50.23,60.06 5.61,21.77 8.89,36.88 9.83,45.31 0.94,8.43 1.41,23.65 1.41,45.67zm-74.46 -40.04c0,-30.92 -7.85,-55.15 -23.54,-72.72 -15.69,-17.56 -37.11,-26.34 -64.28,-26.34 -25.29,0 -46.14,8.89 -62.53,26.69 -16.38,17.79 -25.99,41.91 -28.8,72.36l179.14 0zm323.85 -227.62l0 -40.04 230.43 0 0 40.04 -30.91 0c-18.74,0 -31.14,2.57 -37.24,7.73 -6.08,5.15 -9.14,16.39 -9.14,33.73l0 305.59c0,17.32 2.82,28.56 8.43,33.72 5.62,5.15 18.27,7.73 37.94,7.73l30.91 0 0 40.04 -230.43 0 0 -40.04 30.91 0c18.73,0 31.14,-2.57 37.24,-7.73 6.08,-5.15 9.14,-16.39 9.14,-33.72l0 -305.59c0,-17.33 -2.82,-28.57 -8.43,-33.73 -5.62,-5.15 -18.27,-7.73 -37.94,-7.73l-30.91 0zm411.67 100.46l-2.81 53.39c18.5,-24.36 36.3,-41.21 53.39,-50.58 17.22,-9.37 38.88,-14.06 65.34,-14.06 35.12,0 62.52,9.26 82.19,27.75 19.67,18.5 29.51,45.31 29.51,80.44l0 149.64c0,19.67 2.23,31.96 6.68,36.88 4.45,4.92 15.33,7.37 32.66,7.37l21.08 0 0 37.24 -191.79 0 0 -37.24 20.37 0c17.79,0 28.92,-2.45 33.37,-7.37 4.45,-4.92 6.68,-17.21 6.68,-36.88l0 -134.88c0,-50.12 -22.02,-75.18 -66.04,-75.18 -28.1,0 -50.69,7.61 -67.79,22.83 -17.1,15.22 -25.64,35.25 -25.64,60.07l0 127.16c0,19.67 2.23,31.96 6.68,36.88 4.45,4.92 15.33,7.37 32.66,7.37l21.08 0 0 37.24 -194.6 0 0 -37.24 25.28 0c17.8,0 28.93,-2.45 33.37,-7.37 4.45,-4.92 6.68,-17.21 6.68,-36.88l0 -165.1c0,-19.2 -2.23,-31.26 -6.68,-36.18 -4.44,-4.92 -15.57,-7.38 -33.37,-7.38l-25.28 0 0 -37.93 136.99 0zm442.59 0.69l94.84 0 0 39.35 -94.84 0 0 213.56c0,24.36 9.36,36.53 28.1,36.53 12.64,0 21.3,-4.45 25.99,-13.35 4.69,-8.9 7.02,-26 7.02,-51.28l0 -33.02 38.65 0 0 33.02c0,42.62 -6.56,72.36 -19.68,89.21 -13.11,16.86 -36.52,25.29 -70.25,25.29 -53.39,0 -80.09,-26.69 -80.09,-80.09l0 -219.88 -61.11 0 0 -39.35c28.57,0 50.34,-11.35 65.33,-34.06 14.99,-22.72 22.49,-49.3 22.49,-79.74l43.56 0 0 113.8zm480.52 166.51l-253.61 0c0,37.46 8.2,67.67 24.59,90.62 16.38,22.95 42.85,34.42 79.38,34.42 25.28,0 47.3,-7.84 66.03,-23.54 18.73,-15.69 31.14,-36.65 37.24,-62.87l44.95 0c-9.36,43.09 -27.74,76.22 -55.14,99.4 -27.41,23.18 -61.7,34.78 -102.92,34.78 -51.05,0 -92.03,-15.69 -122.94,-47.07 -30.91,-31.38 -46.36,-72.83 -46.36,-124.35 0,-55.26 14.98,-99.05 44.95,-131.37 29.98,-32.32 70.95,-48.48 122.94,-48.48 38.41,0 71.54,9.14 99.41,27.41 27.87,18.26 44.61,38.28 50.23,60.06 5.61,21.77 8.89,36.88 9.83,45.31 0.94,8.43 1.41,23.65 1.41,45.67zm-74.46 -40.04c0,-30.92 -7.85,-55.15 -23.54,-72.72 -15.69,-17.56 -37.11,-26.34 -64.28,-26.34 -25.29,0 -46.14,8.89 -62.53,26.69 -16.38,17.79 -25.99,41.91 -28.8,72.36l179.14 0z"/>
   <path class="fil3" d="M10853.15 3380.4c-16.39,8.43 -24.59,18.73 -24.59,30.91 0,12.18 5.86,20.72 17.57,25.64 11.71,4.92 32.08,7.38 61.12,7.38l120.83 0c39.34,0 66.86,5.61 82.55,16.86 15.69,11.24 23.53,31.14 23.53,59.71 0,43.09 -18.61,73.18 -55.85,90.27 -37.24,17.1 -80.2,25.64 -128.91,25.64 -52.93,0 -92.27,-3.39 -118.02,-10.19 -25.76,-6.79 -43.32,-17.09 -52.69,-30.91 -9.37,-13.81 -14.06,-27.04 -14.06,-39.69 0,-26.7 17.33,-46.14 51.99,-58.32 -27.63,-12.64 -41.44,-32.31 -41.44,-59.01 0,-33.72 18.73,-57.6 56.2,-71.66 -28.57,-21.54 -42.86,-49.4 -42.86,-83.6 0,-39.81 13.35,-71.66 40.04,-95.54 26.7,-23.89 62.3,-35.83 106.78,-35.83 47.77,0 85.71,13.82 113.81,41.45 8.9,-13.59 19.44,-23.89 31.61,-30.91 12.18,-7.02 25.05,-10.54 38.64,-10.54 17.33,0 31.03,4.81 41.1,14.4 10.07,9.61 15.11,22.36 15.11,38.29 0,13.59 -3.51,24.82 -10.53,33.73 -7.03,8.89 -16.16,13.34 -27.41,13.34 -9.83,0 -17.91,-3.39 -24.23,-10.3 -6.32,-6.91 -9.48,-15.22 -9.48,-25.06 0,-9.72 4.69,-18.15 14.05,-25.28l2.11 -2.69 -7.02 -1.29c-16.86,0 -32.79,10.19 -47.77,30.44 10.3,17.44 15.45,37.24 15.45,59.37 0,35.94 -13.35,64.98 -40.04,87.11 -26.69,22.12 -61.59,33.13 -104.68,33.13 -30.44,0 -58.07,-5.62 -82.9,-16.86zm78.68 -193.19c-21.07,0 -37.93,8.07 -50.58,24.23 -12.65,16.16 -18.97,37.82 -18.97,64.98 0,27.63 6.44,49.29 19.31,64.98 12.88,15.69 30.33,23.54 52.34,23.54 23.42,0 41.68,-7.96 54.79,-23.89 13.12,-15.92 19.67,-37.71 19.67,-65.34 0,-28.1 -6.55,-49.87 -19.67,-65.33 -13.12,-15.45 -32.08,-23.18 -56.91,-23.18zm-88.51 317.54c-15.45,10.77 -23.19,24.81 -23.19,42.15 0,18.26 10.31,31.74 30.92,40.39 20.6,8.67 52.45,13 95.54,13 43.09,0 74.23,-4.34 93.43,-13 19.2,-8.66 28.81,-22.82 28.81,-42.49 0,-24.36 -18.73,-36.53 -56.2,-36.53l-81.49 -1.41c-19.21,0 -38.18,-0.35 -56.91,-1.05 -18.73,-0.7 -29.04,-1.05 -30.91,-1.05zm481.21 -341.42l-2.1 70.95c20.14,-29.51 38.05,-50 53.74,-61.47 15.69,-11.47 33.13,-17.21 52.33,-17.21 17.8,0 32.55,5.38 44.26,16.16 11.71,10.77 17.56,24.35 17.56,40.74 0,16.39 -3.98,29.51 -11.94,39.34 -7.96,9.84 -18.97,14.76 -33.01,14.76 -11.24,0 -20.61,-3.75 -28.1,-11.25 -7.49,-7.49 -11.24,-16.62 -11.24,-27.4 0,-10.3 2.69,-17.68 8.07,-22.13 5.39,-4.44 8.08,-7.6 8.08,-9.48 0,-2.81 -2.82,-4.22 -8.43,-4.22 -5.15,0 -11.94,2.35 -20.37,7.03 -8.43,4.68 -16.98,11.47 -25.64,20.36 -8.67,8.9 -16.05,19.21 -22.13,30.92 -6.09,11.71 -11.47,27.4 -16.16,47.07l0 112.41c0,19.67 2.23,31.96 6.68,36.88 4.45,4.92 15.33,7.37 32.66,7.37l39.34 0 0 37.24 -217.07 0 0 -37.24 29.5 0c17.8,0 28.93,-2.45 33.38,-7.37 4.44,-4.92 6.67,-17.21 6.67,-36.88l0 -165.1c0,-19.2 -2.23,-31.26 -6.67,-36.18 -4.45,-4.92 -15.58,-7.38 -33.38,-7.38l-29.5 0 0 -37.93 133.47 0zm520.57 189.68l36.52 0 0 29.5c0,41.22 -4.45,71.66 -13.34,91.33 -8.9,19.67 -31.61,29.51 -68.15,29.51 -41.69,0 -65.34,-23.42 -70.95,-70.25 -17.33,25.75 -34.89,43.9 -52.69,54.44 -17.79,10.54 -39.81,15.81 -66.03,15.81 -30.45,0 -54.57,-7.96 -72.36,-23.89 -17.8,-15.92 -26.69,-37.7 -26.69,-65.34 0,-33.25 9.13,-57.84 27.4,-73.76 18.26,-15.92 49.53,-27.28 93.79,-34.07 44.25,-6.79 71.77,-13.34 82.54,-19.67 10.78,-6.32 16.16,-18.85 16.16,-37.58 0,-40.28 -26.22,-60.42 -78.68,-60.42 -30.44,0 -53.16,7.26 -68.15,21.78 19.2,3.28 28.81,14.05 28.81,32.32 0,12.64 -4.1,22.59 -12.29,29.86 -8.2,7.26 -18.85,10.88 -31.97,10.88 -12.18,0 -22.13,-4.33 -29.86,-12.99 -7.73,-8.67 -11.59,-19.55 -11.59,-32.66 0,-26.22 11.71,-47.07 35.12,-62.52 23.42,-15.45 55.5,-23.19 96.24,-23.19 45.43,0 77.17,5.39 95.2,16.16 18.03,10.78 29.86,21.9 35.48,33.38 5.61,11.47 8.42,27.74 8.42,48.82l0 167.89c0,23.43 7.27,35.13 21.78,35.13 10.3,0 17.1,-4.57 20.37,-13.7 3.28,-9.14 4.92,-28.46 4.92,-57.96l0 -28.81zm-115.92 -38.64c-4.69,2.34 -11,5.27 -18.97,8.78 -7.96,3.51 -25.65,9.48 -53.05,17.91 -27.4,8.43 -46.24,16.63 -56.55,24.59 -10.3,7.96 -15.45,21.3 -15.45,40.04 0,14.98 4.69,26.69 14.06,35.12 9.36,8.43 22.71,12.65 40.03,12.65 27.17,0 48.95,-8.67 65.34,-26 16.39,-17.33 24.59,-40.04 24.59,-68.15l0 -44.95zm448.91 177.03l0 -59.71c-14.99,26.22 -31.27,44.73 -48.83,55.5 -17.56,10.77 -40.16,16.16 -67.79,16.16 -39.81,0 -73.54,-15.92 -101.17,-47.77 -27.63,-31.85 -41.44,-71.19 -41.44,-118.02 0,-54.33 14.28,-98.82 42.85,-133.48 28.57,-34.65 65.1,-51.99 109.59,-51.99 48.24,0 83.83,19.68 106.79,59.02l0 -106.09c0,-19.67 -2.23,-31.96 -6.68,-36.88 -4.45,-4.92 -15.34,-7.37 -32.67,-7.37l-29.5 0 0 -37.24 136.29 0 0 386.39c0,19.67 2.22,31.96 6.67,36.88 4.45,4.92 15.58,7.37 33.37,7.37l20.37 0 0 37.24 -127.85 0zm-92.74 -289.44c-28.1,0 -50.58,11.82 -67.44,35.59 -16.86,23.65 -25.29,55.5 -25.29,95.42 0,38.52 7.73,68.38 23.18,89.46 15.46,21.19 37.71,31.73 66.75,31.73 29.97,0 53.86,-11.47 71.66,-34.53 17.79,-22.96 26.69,-53.98 26.69,-92.97 0,-39.46 -8.32,-70.14 -24.94,-91.91 -16.63,-21.9 -40.17,-32.79 -70.61,-32.79zm450.31 -49.88c51.99,0 94.49,16.05 127.5,48.13 33.02,32.08 49.53,73.65 49.53,124.7 0,54.32 -15.92,97.65 -47.76,129.96 -31.85,32.32 -74.71,48.48 -128.56,48.48 -51.99,0 -94.73,-15.58 -128.21,-46.72 -33.49,-31.14 -50.23,-72.71 -50.23,-124.7 0,-55.26 15.92,-99.05 47.77,-131.37 31.85,-32.32 75.17,-48.48 129.96,-48.48zm-1.41 41.45c-30.44,0 -54.56,12.18 -72.35,36.53 -17.8,24.36 -26.7,57.6 -26.7,99.76 0,88.05 34.2,132.07 102.58,132.07 30.44,0 54.32,-11.24 71.65,-33.72 17.33,-22.48 26,-54.09 26,-94.84 0,-93.21 -33.73,-139.8 -101.17,-139.8z"/>
  </g>
 </g>
</svg>
